<svg id="Filled" height="512" viewBox="0 0 512 512" width="512" xmlns="http://www.w3.org/2000/svg"><path d="m256 24a16 16 0 0 1 16 16v40a0 0 0 0 1 0 0h-32a0 0 0 0 1 0 0v-40a16 16 0 0 1 16-16z" fill="#dadcde"/><path d="m240 216v224a16 16 0 0 1 -16 16 16 16 0 0 1 -16-16v-16a16 16 0 0 0 -16-16 16 16 0 0 0 -16 16v16a48 48 0 0 0 48 48 48 48 0 0 0 48-48v-224z" fill="#dadcde"/><path d="m272 408v32a48 48 0 0 1 -96 0v-16a16 16 0 0 1 32 0v16a16 16 0 0 0 32 0v-32z" fill="#f2c837"/><path d="m256 224c40 0 80 24 80 24 56-48 112-32 112-32 0-83.947-85.961-160-192-160s-192 76.053-192 160c0 0 56-16 112 32 0 0 40-24 80-24z" fill="#f5dd67"/><path d="m256 56c-72 72-80 192-80 192-56-48-112-32-112-32 0-83.95 85.96-160 192-160z" fill="none"/><path d="m336 248s-40-24-80-24-80 24-80 24 8-120 80-192c72 72 80 192 80 192z" fill="#f2c837"/><path d="m256 16a24.028 24.028 0 0 0 -24 24v9.257c-43.684 4.587-84.53 21.643-116.943 49.165-37.532 31.873-59.057 74.728-59.057 117.578a8 8 0 0 0 10.2 7.692c.52-.146 52.466-14.3 104.6 30.382a8.006 8.006 0 0 0 9.317.789c.3-.179 23.824-14.089 51.889-20.121v205.258a8 8 0 0 1 -16 0v-16a24 24 0 0 0 -48 0v16a56 56 0 0 0 112 0v-205.258c28.065 6.032 51.589 19.941 51.884 20.118a8 8 0 0 0 9.322-.786c21.731-18.626 45.894-29.4 71.818-32.038 19.439-1.974 32.672 1.626 32.778 1.656a8 8 0 0 0 10.192-7.692c0-42.85-21.525-85.705-59.057-117.578-32.412-27.522-73.259-44.578-116.943-49.165v-9.257a24.028 24.028 0 0 0 -24-24zm-8 24a8 8 0 0 1 16 0v8.151c-2.66-.093-5.326-.151-8-.151s-5.34.058-8 .151zm-78.391 192.827c-40.498-29.052-79.109-28.827-97.193-26.521 2.986-34.89 21.929-69.3 53-95.689 30.813-26.167 69.945-42.095 111.758-45.784-30.015 36.2-46.823 79.916-55.871 112a411.981 411.981 0 0 0 -11.694 55.994zm94.391 207.173a40 40 0 0 1 -80 0v-16a8 8 0 0 1 16 0v16a24 24 0 0 0 48 0v-24h16zm0-40h-16v-167.657c2.663-.215 5.334-.343 8-.343s5.337.128 8 .343zm-8-184c-27.552 0-54.635 10.508-70.356 17.946 4.526-32.408 20.311-111.841 70.356-166.369 49.967 54.457 65.8 133.935 70.344 166.364-15.722-7.441-42.798-17.941-70.344-17.941zm130.586-105.383c31.069 26.386 50.012 60.8 53 95.689-18.082-2.305-56.7-2.529-97.193 26.521a411.981 411.981 0 0 0 -11.692-56c-15.023-53.264-36.88-89.019-55.9-112 41.825 3.689 80.966 19.618 111.785 45.79z"/><circle cx="256" cy="192" r="8"/><circle cx="384" cy="184" r="8"/><circle cx="128" cy="184" r="8"/></svg>