<svg height="512pt" viewBox="0 -2 512 511" width="512pt" xmlns="http://www.w3.org/2000/svg"><path d="m367.992188 114.402344h-48.082032v96.164062h-128.21875v-96.164062h-48.082031l112.191406-104.175782zm0 0" fill="#31e8bb"/><path d="m504.222656 282.6875v32.054688h-496.84375v-32.054688l32.054688-72.121094h432.734375zm0 0" fill="#fbb040"/><path d="m39.433594 314.742188h432.734375v184.3125h-432.734375zm0 0" fill="#ffe451"/><path d="m39.433594 314.742188h48.082031v184.3125h-48.082031zm0 0" fill="#fbb040"/><path d="m119.566406 210.566406h-80.132812l-32.054688 72.121094v32.054688h80.136719v-32.054688zm0 0" fill="#f7941d"/><path d="m255.800781 10.226562-112.191406 104.175782h48.082031l88.148438-81.855469zm0 0" fill="#1cb28b"/><path d="m191.691406 114.402344h48.082032v96.164062h-48.082032zm0 0" fill="#1cb28b"/><path d="m79.5 410.90625h48.082031v48.082031h-48.082031zm0 0" fill="#d9eef7"/><g fill="#fff"><path d="m376.203125 275.726562h16.027344v15.15625h-16.027344zm0 0"/><path d="m440.3125 275.726562h16.027344v15.15625h-16.027344zm0 0"/><path d="m159.835938 411.957031h112.191406v15.15625h-112.191406zm0 0"/><path d="m191.890625 444.011719h16.027344v15.15625h-16.027344zm0 0"/><path d="m232.394531 139.058594h15.15625v16.027344h-15.15625zm0 0"/></g><path d="m47.210938 322.9375h144.679687v-15.15625h-176.734375v-16.898438h345.019531v-15.15625h-340.9375l25.320313-56.96875h331.644531v-15.15625h-48.515625v-40.5h-15.15625v40.5h-113.0625v-81.007812h48.519531v-15.152344h-84.882812l85.316406-79.222656v62.757812h15.15625v-62.757812l85.316406 79.222656h-36.363281v31.617188h15.15625v-16.464844h59.800781l-131.488281-122.09375-131.488281 122.09375h59.800781v81.007812h-149.605469l-34.707031 78.09375v41.242188h32.054688v184.3125h312.09375v-15.15625h-296.9375zm0 0"/><path d="m512 281.695312-34.707031-78.09375h-77.046875v15.15625h67.195312l29.402344 66.15625v22.867188h-280.910156v15.15625h248.855468v169.15625h-96.597656v15.15625h111.753906v-184.3125h32.054688zm0 0"/><path d="m408.257812 275.726562h16.027344v15.15625h-16.027344zm0 0"/><path d="m135.359375 467.179688v-63.234376h-63.238281v63.234376zm-48.082031-48.078126h32.925781v32.921876h-32.925781zm0 0"/><path d="m159.835938 444.011719h16.027343v15.15625h-16.027343zm0 0"/><path d="m447.890625 379.46875v-39.632812h-39.632813v15.15625h24.476563v24.476562zm0 0"/><path d="m232.394531 171.113281h15.15625v16.027344h-15.15625zm0 0"/></svg>