<svg xmlns="http://www.w3.org/2000/svg" height="593pt" version="1.1" viewBox="1 -45 593.51725 593" width="593pt">
<g id="surface1">
<path d="M 287.925781 264.789062 L 306.136719 264.789062 L 306.136719 291.972656 L 287.925781 291.972656 Z M 287.925781 264.789062 " style=" stroke:none;fill-rule:nonzero;fill:rgb(100%,100%,100%);fill-opacity:1;" />
<path d="M 229.007812 382.625 L 247.214844 382.625 L 247.214844 409.8125 L 229.007812 409.8125 Z M 229.007812 382.625 " style=" stroke:none;fill-rule:nonzero;fill:rgb(100%,100%,100%);fill-opacity:1;" />
<path d="M 346.847656 382.625 L 365.054688 382.625 L 365.054688 409.8125 L 346.847656 409.8125 Z M 346.847656 382.625 " style=" stroke:none;fill-rule:nonzero;fill:rgb(100%,100%,100%);fill-opacity:1;" />
<path d="M 253.628906 413.015625 C 253.628906 414.785156 252.191406 416.222656 250.421875 416.222656 L 225.804688 416.222656 C 224.035156 416.222656 222.597656 414.785156 222.597656 413.015625 L 222.597656 382.625 L 182.464844 382.625 L 182.464844 494.054688 L 293.828125 494.054688 L 293.828125 382.625 L 253.628906 382.625 Z M 253.628906 413.015625 " style=" stroke:none;fill-rule:nonzero;fill:rgb(100%,81.568627%,30.196078%);fill-opacity:1;" />
<path d="M 352.746094 264.789062 L 312.546875 264.789062 L 312.546875 295.175781 C 312.546875 296.945312 311.109375 298.382812 309.339844 298.382812 L 284.722656 298.382812 C 282.953125 298.382812 281.515625 296.945312 281.515625 295.175781 L 281.515625 264.789062 L 241.316406 264.789062 L 241.316406 376.214844 L 352.746094 376.214844 C 352.746094 376.214844 352.746094 264.789062 352.746094 264.789062 Z M 352.746094 264.789062 " style=" stroke:none;fill-rule:nonzero;fill:rgb(100%,81.568627%,30.196078%);fill-opacity:1;" />
<path d="M 371.464844 382.625 L 371.464844 413.015625 C 371.464844 414.785156 370.03125 416.222656 368.261719 416.222656 L 343.640625 416.222656 C 341.871094 416.222656 340.4375 414.785156 340.4375 413.015625 L 340.4375 382.625 L 300.238281 382.625 L 300.238281 494.054688 L 411.664062 494.054688 L 411.664062 382.625 Z M 371.464844 382.625 " style=" stroke:none;fill-rule:nonzero;fill:rgb(100%,81.568627%,30.196078%);fill-opacity:1;" />
<path d="M 297.03125 10.328125 L 9.617188 160.476562 L 9.617188 206.191406 L 584.449219 206.191406 L 584.449219 160.476562 L 298.507812 11.097656 Z M 297.03125 10.328125 " style=" stroke:none;fill-rule:nonzero;fill:rgb(100%,45.098039%,30.196078%);fill-opacity:1;" />
<path d="M 63.40625 212.601562 L 136.367188 212.601562 L 136.367188 493.988281 L 63.40625 493.988281 Z M 63.40625 212.601562 " style=" stroke:none;fill-rule:nonzero;fill:rgb(87.843137%,87.843137%,87.843137%);fill-opacity:1;" />
<path d="M 457.699219 212.601562 L 530.59375 212.601562 L 530.59375 493.988281 L 457.699219 493.988281 Z M 457.699219 212.601562 " style=" stroke:none;fill-rule:nonzero;fill:rgb(87.843137%,87.843137%,87.843137%);fill-opacity:1;" />
<path d="M 590.601562 152.847656 L 299.980469 1.03125 C 298.117188 0.0507812 295.886719 0.0507812 294.019531 1.03125 L 3.460938 152.847656 C 1.332031 153.949219 -0.0078125 156.15625 0 158.554688 L 0 209.394531 C 0 212.933594 2.871094 215.804688 6.410156 215.804688 L 53.789062 215.804688 L 53.789062 497.195312 C 53.789062 500.734375 56.660156 503.605469 60.199219 503.605469 L 139.574219 503.605469 C 143.109375 503.605469 145.984375 500.734375 145.984375 497.195312 L 145.984375 215.804688 L 448.082031 215.804688 L 448.082031 497.195312 C 448.082031 500.734375 450.953125 503.605469 454.492188 503.605469 L 533.796875 503.605469 C 537.335938 503.605469 540.210938 500.734375 540.210938 497.195312 L 540.210938 215.804688 L 587.585938 215.804688 C 591.125 215.804688 594 212.933594 594 209.394531 L 594 158.554688 C 594.019531 156.167969 592.710938 153.96875 590.601562 152.847656 Z M 133.160156 490.785156 L 66.613281 490.785156 L 66.613281 215.804688 L 133.160156 215.804688 Z M 527.449219 490.785156 L 460.902344 490.785156 L 460.902344 215.804688 L 527.449219 215.804688 Z M 581.242188 202.984375 L 12.824219 202.984375 L 12.824219 162.207031 L 297.03125 13.917969 L 581.242188 162.207031 Z M 581.242188 202.984375 " style=" stroke:none;fill-rule:nonzero;fill:rgb(13.333333%,14.901961%,15.686275%);fill-opacity:1;" />
<path d="M 414.871094 373.011719 L 362.363281 373.011719 L 362.363281 261.582031 C 362.363281 258.042969 359.492188 255.171875 355.953125 255.171875 L 238.113281 255.171875 C 234.574219 255.171875 231.703125 258.042969 231.703125 261.582031 L 231.703125 373.011719 L 179.257812 373.011719 C 175.71875 373.011719 172.847656 375.882812 172.847656 379.421875 L 172.847656 497.257812 C 172.847656 500.796875 175.71875 503.671875 179.257812 503.671875 L 414.871094 503.671875 C 418.410156 503.671875 421.28125 500.796875 421.28125 497.257812 L 421.28125 379.421875 C 421.28125 375.882812 418.410156 373.011719 414.871094 373.011719 Z M 350.054688 385.832031 L 361.851562 385.832031 L 361.851562 406.605469 L 350.054688 406.605469 Z M 291.132812 267.992188 L 302.929688 267.992188 L 302.929688 288.765625 L 291.132812 288.765625 Z M 244.523438 267.992188 L 278.3125 267.992188 L 278.3125 295.175781 C 278.3125 298.714844 281.183594 301.589844 284.722656 301.589844 L 309.34375 301.589844 C 312.882812 301.589844 315.753906 298.714844 315.753906 295.175781 L 315.753906 267.992188 L 349.539062 267.992188 L 349.539062 373.011719 L 244.523438 373.011719 Z M 232.214844 385.832031 L 244.011719 385.832031 L 244.011719 406.605469 L 232.214844 406.605469 Z M 290.621094 490.785156 L 185.667969 490.785156 L 185.667969 385.832031 L 219.457031 385.832031 L 219.457031 413.015625 C 219.457031 416.554688 222.328125 419.425781 225.867188 419.425781 L 250.484375 419.425781 C 254.023438 419.425781 256.898438 416.554688 256.898438 413.015625 L 256.898438 385.832031 L 290.621094 385.832031 Z M 408.460938 490.785156 L 303.441406 490.785156 L 303.441406 385.832031 L 337.230469 385.832031 L 337.230469 413.015625 C 337.230469 416.554688 340.101562 419.425781 343.640625 419.425781 L 368.261719 419.425781 C 371.800781 419.425781 374.671875 416.554688 374.671875 413.015625 L 374.671875 385.832031 L 408.460938 385.832031 Z M 408.460938 490.785156 " style=" stroke:none;fill-rule:nonzero;fill:rgb(13.333333%,14.901961%,15.686275%);fill-opacity:1;" />
</g>
</svg>